<svg width="159" height="37" viewBox="0 0 159 37" fill="none" xmlns="http://www.w3.org/2000/svg">
<path d="M18.2855 0.731445C8.59054 0.731445 0.731445 8.59054 0.731445 18.2855C0.731445 27.9804 8.59054 35.8395 18.2855 35.8395C27.9804 35.8395 35.8395 27.9804 35.8395 18.2855C35.8395 8.59054 27.9804 0.731445 18.2855 0.731445ZM22.4436 12.862H19.805C19.4923 12.862 19.1449 13.2734 19.1449 13.8202V15.7255H22.4454L21.9462 18.4427H19.1449V26.5999H16.0309V18.4427H13.2058V15.7255H16.0309V14.1274C16.0309 11.8344 17.6217 9.97109 19.805 9.97109H22.4436V12.862V12.862Z" fill="white"/>
<path d="M140.189 0.731445C130.494 0.731445 122.635 8.59054 122.635 18.2855C122.635 27.9804 130.494 35.8395 140.189 35.8395C149.884 35.8395 157.743 27.9804 157.743 18.2855C157.743 8.59054 149.884 0.731445 140.189 0.731445ZM147.329 15.1111C147.337 15.2611 147.338 15.411 147.338 15.5573C147.338 20.1287 143.862 25.3967 137.503 25.3967C135.623 25.3998 133.783 24.8601 132.204 23.8424C132.472 23.8754 132.748 23.8882 133.028 23.8882C134.648 23.8882 136.139 23.3378 137.322 22.4089C136.601 22.3947 135.902 22.156 135.323 21.7259C134.744 21.2959 134.314 20.696 134.092 20.0098C134.61 20.1083 135.144 20.0876 135.652 19.9495C134.87 19.7912 134.166 19.3672 133.66 18.7493C133.155 18.1314 132.878 17.3577 132.878 16.5593V16.5173C133.345 16.7751 133.878 16.9324 134.445 16.9507C133.712 16.4623 133.192 15.7121 132.994 14.8535C132.795 13.995 132.931 13.0929 133.376 12.3317C134.244 13.3996 135.327 14.2732 136.555 14.8959C137.782 15.5187 139.127 15.8767 140.501 15.9468C140.327 15.205 140.402 14.4262 140.715 13.7315C141.029 13.0368 141.563 12.4652 142.235 12.1055C142.907 11.7458 143.679 11.6181 144.431 11.7423C145.183 11.8666 145.873 12.2358 146.393 12.7925C147.167 12.6394 147.909 12.3556 148.587 11.9532C148.329 12.7544 147.789 13.4347 147.068 13.8677C147.753 13.7852 148.423 13.6009 149.054 13.321C148.59 14.0156 148.006 14.6219 147.329 15.1111V15.1111Z" fill="white"/>
<path d="M84.7223 18.2855C84.7223 19.7404 84.1444 21.1357 83.1156 22.1644C82.0868 23.1932 80.6915 23.7711 79.2367 23.7711C77.7818 23.7711 76.3865 23.1932 75.3577 22.1644C74.329 21.1357 73.751 19.7404 73.751 18.2855C73.751 17.9728 73.7839 17.6674 73.8406 17.3712H71.9225V24.6799C71.9225 25.1882 72.3339 25.5997 72.8422 25.5997H85.6329C85.8765 25.5992 86.11 25.5021 86.2821 25.3296C86.4542 25.1572 86.5508 24.9235 86.5508 24.6799V17.3712H84.6327C84.6894 17.6674 84.7223 17.9728 84.7223 18.2855V18.2855ZM79.2367 21.9426C79.717 21.9425 80.1927 21.8477 80.6365 21.6638C81.0802 21.4798 81.4834 21.2103 81.823 20.8705C82.1626 20.5308 82.4319 20.1274 82.6157 19.6836C82.7994 19.2397 82.8939 18.764 82.8938 18.2837C82.8936 17.8033 82.7989 17.3276 82.615 16.8839C82.431 16.4401 82.1615 16.0369 81.8217 15.6973C81.4819 15.3577 81.0786 15.0884 80.6348 14.9047C80.1909 14.7209 79.7152 14.6264 79.2348 14.6266C78.2647 14.6268 77.3343 15.0124 76.6485 15.6986C75.9627 16.3848 75.5775 17.3153 75.5777 18.2855C75.578 19.2557 75.9636 20.186 76.6498 20.8718C77.336 21.5577 78.2665 21.9428 79.2367 21.9426V21.9426ZM83.6252 14.4455H85.8176C85.9633 14.4455 86.103 14.3878 86.2061 14.285C86.3093 14.1822 86.3675 14.0426 86.368 13.897V11.7046C86.368 11.5586 86.31 11.4186 86.2068 11.3154C86.1036 11.2121 85.9636 11.1542 85.8176 11.1542H83.6252C83.4792 11.1542 83.3392 11.2121 83.236 11.3154C83.1328 11.4186 83.0748 11.5586 83.0748 11.7046V13.897C83.0766 14.1987 83.3235 14.4455 83.6252 14.4455V14.4455ZM79.2367 0.731445C74.581 0.731445 70.1161 2.58088 66.8241 5.8729C63.5321 9.16493 61.6826 13.6299 61.6826 18.2855C61.6826 22.9411 63.5321 27.406 66.8241 30.6981C70.1161 33.9901 74.581 35.8395 79.2367 35.8395C81.5419 35.8395 83.8246 35.3855 85.9543 34.5033C88.0841 33.6211 90.0192 32.3281 91.6492 30.6981C93.2793 29.068 94.5723 27.1329 95.4545 25.0031C96.3367 22.8734 96.7907 20.5907 96.7907 18.2855C96.7907 15.9803 96.3367 13.6976 95.4545 11.5678C94.5723 9.43809 93.2793 7.50295 91.6492 5.8729C90.0192 4.24286 88.0841 2.94984 85.9543 2.06767C83.8246 1.18549 81.5419 0.731445 79.2367 0.731445V0.731445ZM88.3794 25.3967C88.3794 26.5139 87.4651 27.4282 86.3479 27.4282H72.1254C71.0082 27.4282 70.0939 26.5139 70.0939 25.3967V11.1743C70.0939 10.057 71.0082 9.14276 72.1254 9.14276H86.3479C87.4651 9.14276 88.3794 10.057 88.3794 11.1743V25.3967V25.3967Z" fill="white"/>
</svg>
