<svg width="159" height="38" viewBox="0 0 159 38" fill="none" xmlns="http://www.w3.org/2000/svg">
<path d="M18.2855 1.68359C8.59054 1.68359 0.731445 9.54269 0.731445 19.2376C0.731445 28.9326 8.59054 36.7917 18.2855 36.7917C27.9804 36.7917 35.8395 28.9326 35.8395 19.2376C35.8395 9.54269 27.9804 1.68359 18.2855 1.68359ZM22.4436 13.8142H19.805C19.4923 13.8142 19.1449 14.2256 19.1449 14.7723V16.6777H22.4454L21.9462 19.3949H19.1449V27.552H16.0309V19.3949H13.2058V16.6777H16.0309V15.0795C16.0309 12.7865 17.6217 10.9232 19.805 10.9232H22.4436V13.8142V13.8142Z" fill="white"/>
<path d="M140.189 1.68359C130.494 1.68359 122.635 9.54269 122.635 19.2376C122.635 28.9326 130.494 36.7917 140.189 36.7917C149.884 36.7917 157.743 28.9326 157.743 19.2376C157.743 9.54269 149.884 1.68359 140.189 1.68359ZM147.329 16.0633C147.337 16.2132 147.338 16.3632 147.338 16.5094C147.338 21.0808 143.862 26.3489 137.503 26.3489C135.623 26.352 133.783 25.8123 132.204 24.7946C132.472 24.8275 132.748 24.8403 133.028 24.8403C134.648 24.8403 136.139 24.2899 137.322 23.361C136.601 23.3468 135.902 23.1081 135.323 22.6781C134.744 22.248 134.314 21.6481 134.092 20.962C134.61 21.0604 135.144 21.0398 135.652 20.9016C134.87 20.7434 134.166 20.3194 133.66 19.7015C133.155 19.0836 132.878 18.3099 132.878 17.5115V17.4694C133.345 17.7273 133.878 17.8845 134.445 17.9028C133.712 17.4144 133.192 16.6643 132.994 15.8057C132.795 14.9471 132.931 14.045 133.376 13.2839C134.244 14.3518 135.327 15.2253 136.555 15.8481C137.782 16.4708 139.127 16.8288 140.501 16.8989C140.327 16.1571 140.402 15.3783 140.715 14.6837C141.029 13.989 141.563 13.4174 142.235 13.0576C142.907 12.6979 143.679 12.5703 144.431 12.6945C145.183 12.8187 145.873 13.1879 146.393 13.7447C147.167 13.5916 147.909 13.3078 148.587 12.9054C148.329 13.7065 147.789 14.3868 147.068 14.8199C147.753 14.7373 148.423 14.553 149.054 14.2731C148.59 14.9678 148.006 15.574 147.329 16.0633V16.0633Z" fill="white"/>
<path d="M84.7223 19.2376C84.7223 20.6925 84.1444 22.0878 83.1156 23.1166C82.0868 24.1453 80.6915 24.7233 79.2367 24.7233C77.7818 24.7233 76.3865 24.1453 75.3577 23.1166C74.329 22.0878 73.751 20.6925 73.751 19.2376C73.751 18.925 73.7839 18.6196 73.8406 18.3234H71.9225V25.6321C71.9225 26.1404 72.3339 26.5518 72.8422 26.5518H85.6329C85.8765 26.5513 86.11 26.4542 86.2821 26.2818C86.4542 26.1093 86.5508 25.8757 86.5508 25.6321V18.3234H84.6327C84.6894 18.6196 84.7223 18.925 84.7223 19.2376V19.2376ZM79.2367 22.8947C79.717 22.8946 80.1927 22.7999 80.6365 22.6159C81.0802 22.432 81.4834 22.1624 81.823 21.8227C82.1626 21.4829 82.4319 21.0796 82.6157 20.6357C82.7994 20.1919 82.8939 19.7162 82.8938 19.2358C82.8936 18.7554 82.7989 18.2798 82.615 17.836C82.431 17.3923 82.1615 16.9891 81.8217 16.6495C81.4819 16.3099 81.0786 16.0405 80.6348 15.8568C80.1909 15.6731 79.7152 15.5786 79.2348 15.5787C78.2647 15.579 77.3343 15.9646 76.6485 16.6508C75.9627 17.3369 75.5775 18.2675 75.5777 19.2376C75.578 20.2078 75.9636 21.1381 76.6498 21.824C77.336 22.5098 78.2665 22.895 79.2367 22.8947V22.8947ZM83.6252 15.3977H85.8176C85.9633 15.3977 86.103 15.34 86.2061 15.2371C86.3093 15.1343 86.3675 14.9948 86.368 14.8491V12.6567C86.368 12.5107 86.31 12.3707 86.2068 12.2675C86.1036 12.1643 85.9636 12.1063 85.8176 12.1063H83.6252C83.4792 12.1063 83.3392 12.1643 83.236 12.2675C83.1328 12.3707 83.0748 12.5107 83.0748 12.6567V14.8491C83.0766 15.1508 83.3235 15.3977 83.6252 15.3977V15.3977ZM79.2367 1.68359C74.581 1.68359 70.1161 3.53303 66.8241 6.82505C63.5321 10.1171 61.6826 14.582 61.6826 19.2376C61.6826 23.8933 63.5321 28.3582 66.8241 31.6502C70.1161 34.9422 74.581 36.7917 79.2367 36.7917C81.5419 36.7917 83.8246 36.3376 85.9543 35.4555C88.0841 34.5733 90.0192 33.2803 91.6492 31.6502C93.2793 30.0202 94.5723 28.085 95.4545 25.9553C96.3367 23.8255 96.7907 21.5429 96.7907 19.2376C96.7907 16.9324 96.3367 14.6497 95.4545 12.52C94.5723 10.3902 93.2793 8.4551 91.6492 6.82505C90.0192 5.19501 88.0841 3.90199 85.9543 3.01982C83.8246 2.13764 81.5419 1.68359 79.2367 1.68359V1.68359ZM88.3794 26.3489C88.3794 27.4661 87.4651 28.3804 86.3479 28.3804H72.1254C71.0082 28.3804 70.0939 27.4661 70.0939 26.3489V12.1264C70.0939 11.0092 71.0082 10.0949 72.1254 10.0949H86.3479C87.4651 10.0949 88.3794 11.0092 88.3794 12.1264V26.3489V26.3489Z" fill="white"/>
</svg>
