<svg width="35" height="40" viewBox="0 0 35 40" fill="none" xmlns="http://www.w3.org/2000/svg">
<path d="M7.29167 36.6668C6.48959 36.6668 5.80271 36.3402 5.23104 35.6868C4.65938 35.0335 4.37403 34.2491 4.375 33.3335V10.0002C4.375 9.0835 4.66084 8.2985 5.2325 7.64516C5.80417 6.99183 6.49056 6.66572 7.29167 6.66683H8.75V3.3335H11.6667V6.66683H23.3333V3.3335H26.25V6.66683H27.7083C28.5104 6.66683 29.1973 6.9935 29.769 7.64683C30.3406 8.30016 30.626 9.08461 30.625 10.0002V33.3335C30.625 34.2502 30.3392 35.0352 29.7675 35.6885C29.1958 36.3418 28.5094 36.6679 27.7083 36.6668H7.29167ZM7.29167 33.3335H27.7083V16.6668H7.29167V33.3335ZM7.29167 13.3335H27.7083V10.0002H7.29167V13.3335Z" fill="black"/>
</svg>
