<svg width="36" height="40" viewBox="0 0 36 40" fill="none" xmlns="http://www.w3.org/2000/svg">
<path d="M18.0002 6.6665C19.5473 6.6665 21.031 7.36888 22.125 8.61913C23.2189 9.86937 23.8335 11.5651 23.8335 13.3332C23.8335 15.1013 23.2189 16.797 22.125 18.0472C21.031 19.2975 19.5473 19.9998 18.0002 19.9998C16.4531 19.9998 14.9693 19.2975 13.8754 18.0472C12.7814 16.797 12.1668 15.1013 12.1668 13.3332C12.1668 11.5651 12.7814 9.86937 13.8754 8.61913C14.9693 7.36888 16.4531 6.6665 18.0002 6.6665ZM18.0002 23.3332C24.446 23.3332 29.6668 26.3165 29.6668 29.9998V33.3332H6.3335V29.9998C6.3335 26.3165 11.5543 23.3332 18.0002 23.3332Z" fill="black"/>
</svg>
