<svg width="36" height="40" viewBox="0 0 36 40" fill="none" xmlns="http://www.w3.org/2000/svg">
<path d="M16.5 4C13.4344 4 10.4376 4.90906 7.88867 6.61222C5.33971 8.31538 3.35303 10.7362 2.17987 13.5684C1.00672 16.4007 0.699764 19.5172 1.29784 22.5239C1.89591 25.5306 3.37214 28.2924 5.53985 30.4602C7.70756 32.6279 10.4694 34.1041 13.4761 34.7022C16.4828 35.3002 19.5993 34.9933 22.4316 33.8201C25.2638 32.647 27.6846 30.6603 29.3878 28.1113C31.0909 25.5624 32 22.5656 32 19.5C31.9921 15.3916 30.3566 11.4537 27.4515 8.54855C24.5463 5.64344 20.6084 4.00788 16.5 4ZM16.5 32.6154C13.906 32.6154 11.3703 31.8462 9.21349 30.405C7.05667 28.9639 5.37564 26.9156 4.38297 24.519C3.3903 22.1225 3.13057 19.4854 3.63663 16.9413C4.14269 14.3972 5.39181 12.0602 7.22603 10.226C9.06025 8.3918 11.3972 7.14268 13.9413 6.63662C16.4855 6.13056 19.1225 6.39029 21.519 7.38296C23.9156 8.37564 25.9639 10.0567 27.405 12.2135C28.8462 14.3703 29.6154 16.906 29.6154 19.5C29.6114 22.9772 28.2284 26.3109 25.7696 28.7696C23.3109 31.2284 19.9772 32.6114 16.5 32.6154ZM22.4615 22.4808C22.4576 23.5863 22.0167 24.6455 21.2349 25.4272C20.4532 26.209 19.394 26.6499 18.2885 26.6538H17.6923V27.8461C17.6923 28.1624 17.5667 28.4656 17.3431 28.6892C17.1195 28.9128 16.8162 29.0385 16.5 29.0385C16.1838 29.0385 15.8805 28.9128 15.6569 28.6892C15.4333 28.4656 15.3077 28.1624 15.3077 27.8461V26.6538H12.9231C12.6069 26.6538 12.3036 26.5282 12.08 26.3046C11.8564 26.081 11.7308 25.7778 11.7308 25.4615C11.7308 25.1453 11.8564 24.842 12.08 24.6184C12.3036 24.3948 12.6069 24.2692 12.9231 24.2692H18.2885C18.7628 24.2692 19.2177 24.0808 19.5531 23.7454C19.8885 23.41 20.0769 22.9551 20.0769 22.4808C20.0769 22.0064 19.8885 21.5515 19.5531 21.2161C19.2177 20.8807 18.7628 20.6923 18.2885 20.6923H14.7115C13.6048 20.6923 12.5433 20.2526 11.7607 19.47C10.9781 18.6874 10.5385 17.626 10.5385 16.5192C10.5385 15.4125 10.9781 14.351 11.7607 13.5684C12.5433 12.7858 13.6048 12.3462 14.7115 12.3462H15.3077V11.1538C15.3077 10.8376 15.4333 10.5344 15.6569 10.3108C15.8805 10.0872 16.1838 9.96154 16.5 9.96154C16.8162 9.96154 17.1195 10.0872 17.3431 10.3108C17.5667 10.5344 17.6923 10.8376 17.6923 11.1538V12.3462H20.0769C20.3931 12.3462 20.6964 12.4718 20.92 12.6954C21.1436 12.919 21.2692 13.2222 21.2692 13.5385C21.2692 13.8547 21.1436 14.1579 20.92 14.3815C20.6964 14.6051 20.3931 14.7308 20.0769 14.7308H14.7115C14.2372 14.7308 13.7823 14.9192 13.4469 15.2546C13.1115 15.59 12.9231 16.0449 12.9231 16.5192C12.9231 16.9936 13.1115 17.4485 13.4469 17.7839C13.7823 18.1193 14.2372 18.3077 14.7115 18.3077H18.2885C19.394 18.3116 20.4532 18.7525 21.2349 19.5343C22.0167 20.316 22.4576 21.3752 22.4615 22.4808Z" fill="black"/>
</svg>
